<style>foreignObject div { overflow: visible !important; }</style><svg id="mermaid-1773902272557" width="100%" xmlns="http://www.w3.org/2000/svg" xmlns:xlink="http://www.w3.org/1999/xlink" style="max-width: 2297.22265625px;" viewBox="-8 -8 2297.22265625 1221" role="graphics-document document" aria-roledescription="flowchart-v2"><style>#mermaid-1773902272557{font-family:"trebuchet ms",verdana,arial,sans-serif;font-size:16px;fill:#333;}#mermaid-1773902272557 .error-icon{fill:#552222;}#mermaid-1773902272557 .error-text{fill:#552222;stroke:#552222;}#mermaid-1773902272557 .edge-thickness-normal{stroke-width:2px;}#mermaid-1773902272557 .edge-thickness-thick{stroke-width:3.5px;}#mermaid-1773902272557 .edge-pattern-solid{stroke-dasharray:0;}#mermaid-1773902272557 .edge-pattern-dashed{stroke-dasharray:3;}#mermaid-1773902272557 .edge-pattern-dotted{stroke-dasharray:2;}#mermaid-1773902272557 .marker{fill:#333333;stroke:#333333;}#mermaid-1773902272557 .marker.cross{stroke:#333333;}#mermaid-1773902272557 svg{font-family:"trebuchet ms",verdana,arial,sans-serif;font-size:16px;}#mermaid-1773902272557 .label{font-family:"trebuchet ms",verdana,arial,sans-serif;color:#333;}#mermaid-1773902272557 .cluster-label text{fill:#333;}#mermaid-1773902272557 .cluster-label span,#mermaid-1773902272557 p{color:#333;}#mermaid-1773902272557 .label text,#mermaid-1773902272557 span,#mermaid-1773902272557 p{fill:#333;color:#333;}#mermaid-1773902272557 .node rect,#mermaid-1773902272557 .node circle,#mermaid-1773902272557 .node ellipse,#mermaid-1773902272557 .node polygon,#mermaid-1773902272557 .node path{fill:#ECECFF;stroke:#9370DB;stroke-width:1px;}#mermaid-1773902272557 .flowchart-label text{text-anchor:middle;}#mermaid-1773902272557 .node .katex path{fill:#000;stroke:#000;stroke-width:1px;}#mermaid-1773902272557 .node .label{text-align:center;}#mermaid-1773902272557 .node.clickable{cursor:pointer;}#mermaid-1773902272557 .arrowheadPath{fill:#333333;}#mermaid-1773902272557 .edgePath .path{stroke:#333333;stroke-width:2.0px;}#mermaid-1773902272557 .flowchart-link{stroke:#333333;fill:none;}#mermaid-1773902272557 .edgeLabel{background-color:#e8e8e8;text-align:center;}#mermaid-1773902272557 .edgeLabel rect{opacity:0.5;background-color:#e8e8e8;fill:#e8e8e8;}#mermaid-1773902272557 .labelBkg{background-color:rgba(232, 232, 232, 0.5);}#mermaid-1773902272557 .cluster rect{fill:#ffffde;stroke:#aaaa33;stroke-width:1px;}#mermaid-1773902272557 .cluster text{fill:#333;}#mermaid-1773902272557 .cluster span,#mermaid-1773902272557 p{color:#333;}#mermaid-1773902272557 div.mermaidTooltip{position:absolute;text-align:center;max-width:200px;padding:2px;font-family:"trebuchet ms",verdana,arial,sans-serif;font-size:12px;background:hsl(80, 100%, 96.2745098039%);border:1px solid #aaaa33;border-radius:2px;pointer-events:none;z-index:100;}#mermaid-1773902272557 .flowchartTitleText{text-anchor:middle;font-size:18px;fill:#333;}#mermaid-1773902272557 :root{--mermaid-font-family:"trebuchet ms",verdana,arial,sans-serif;}</style><g><marker id="mermaid-1773902272557_flowchart-pointEnd" class="marker flowchart" viewBox="0 0 10 10" refX="6" refY="5" markerUnits="userSpaceOnUse" markerWidth="12" markerHeight="12" orient="auto"><path d="M 0 0 L 10 5 L 0 10 z" class="arrowMarkerPath" style="stroke-width: 1; stroke-dasharray: 1, 0;"></path></marker><marker id="mermaid-1773902272557_flowchart-pointStart" class="marker flowchart" viewBox="0 0 10 10" refX="4.5" refY="5" markerUnits="userSpaceOnUse" markerWidth="12" markerHeight="12" orient="auto"><path d="M 0 5 L 10 10 L 10 0 z" class="arrowMarkerPath" style="stroke-width: 1; stroke-dasharray: 1, 0;"></path></marker><marker id="mermaid-1773902272557_flowchart-circleEnd" class="marker flowchart" viewBox="0 0 10 10" refX="11" refY="5" markerUnits="userSpaceOnUse" markerWidth="11" markerHeight="11" orient="auto"><circle cx="5" cy="5" r="5" class="arrowMarkerPath" style="stroke-width: 1; stroke-dasharray: 1, 0;"></circle></marker><marker id="mermaid-1773902272557_flowchart-circleStart" class="marker flowchart" viewBox="0 0 10 10" refX="-1" refY="5" markerUnits="userSpaceOnUse" markerWidth="11" markerHeight="11" orient="auto"><circle cx="5" cy="5" r="5" class="arrowMarkerPath" style="stroke-width: 1; stroke-dasharray: 1, 0;"></circle></marker><marker id="mermaid-1773902272557_flowchart-crossEnd" class="marker cross flowchart" viewBox="0 0 11 11" refX="12" refY="5.2" markerUnits="userSpaceOnUse" markerWidth="11" markerHeight="11" orient="auto"><path d="M 1,1 l 9,9 M 10,1 l -9,9" class="arrowMarkerPath" style="stroke-width: 2; stroke-dasharray: 1, 0;"></path></marker><marker id="mermaid-1773902272557_flowchart-crossStart" class="marker cross flowchart" viewBox="0 0 11 11" refX="-1" refY="5.2" markerUnits="userSpaceOnUse" markerWidth="11" markerHeight="11" orient="auto"><path d="M 1,1 l 9,9 M 10,1 l -9,9" class="arrowMarkerPath" style="stroke-width: 2; stroke-dasharray: 1, 0;"></path></marker><g class="root"><g class="clusters"><g class="cluster default flowchart-label" id="EHR"><rect style="fill:#1e1e2e;stroke:#64748b;" rx="0" ry="0" x="12.5703125" y="978" width="504.7109375" height="101"></rect><g class="cluster-label" transform="translate(113.34765625, 978)"><foreignObject width="303.15625" height="38"><div style="color: rgb(226, 232, 240); display: inline-block; white-space: nowrap;" xmlns="http://www.w3.org/1999/xhtml"><span style="color:#e2e8f0;" class="nodeLabel">EHR SYSTEMS (FHIR R4 US Core STU7)</span></div></foreignObject></g></g><g class="cluster default flowchart-label" id="SYS"><rect style="fill:#7c2d12;stroke:#f97316;" rx="0" ry="0" x="0" y="360" width="536.375" height="568"></rect><g class="cluster-label" transform="translate(192.75, 360)"><foreignObject width="150.875" height="38"><div style="color: rgb(226, 232, 240); display: inline-block; white-space: nowrap;" xmlns="http://www.w3.org/1999/xhtml"><span style="color:#e2e8f0;" class="nodeLabel">SYSTEM API LAYER</span></div></foreignObject></g></g><g class="cluster default flowchart-label" id="PROC"><rect style="fill:#065f46;stroke:#10b981;" rx="0" ry="0" x="556.375" y="234" width="1670.03125" height="971"></rect><g class="cluster-label" transform="translate(1211.90625, 234)"><foreignObject width="358.96875" height="38"><div style="color: rgb(226, 232, 240); display: inline-block; white-space: nowrap;" xmlns="http://www.w3.org/1999/xhtml"><span style="color:#e2e8f0;" class="nodeLabel">PROCESS API LAYER — Clinical Data Federation</span></div></foreignObject></g></g><g class="cluster default flowchart-label" id="EXP"><rect style="fill:#1a365d;stroke:#2b6cb0;" rx="0" ry="0" x="481.4140625" y="0" width="1799.80859375" height="184"></rect><g class="cluster-label" transform="translate(1287.208984375, 0)"><foreignObject width="188.21875" height="38"><div style="color: rgb(226, 232, 240); display: inline-block; white-space: nowrap;" xmlns="http://www.w3.org/1999/xhtml"><span style="color:#e2e8f0;" class="nodeLabel">EXPERIENCE API LAYER</span></div></foreignObject></g></g></g><g class="edgePaths"><path d="M1268.527,57.848L1156.502,65.04C1044.477,72.232,820.426,86.616,708.4,97.091C596.375,107.567,596.375,114.133,596.375,117.417L596.375,120.7" id="L-AGENT-T1-0" class=" edge-thickness-normal edge-pattern-solid flowchart-link LS-AGENT LE-T1" style="fill:none;" marker-end="url(#mermaid-1773902272557_flowchart-pointEnd)"></path><path d="M1268.527,60.13L1187.57,66.942C1106.612,73.753,944.697,87.377,863.739,97.472C782.781,107.567,782.781,114.133,782.781,117.417L782.781,120.7" id="L-AGENT-T2-0" class=" edge-thickness-normal edge-pattern-solid flowchart-link LS-AGENT LE-T2" style="fill:none;" marker-end="url(#mermaid-1773902272557_flowchart-pointEnd)"></path><path d="M1268.527,64.966L1221.01,70.971C1173.492,76.977,1078.457,88.989,1030.939,98.278C983.422,107.567,983.422,114.133,983.422,117.417L983.422,120.7" id="L-AGENT-T3-0" class=" edge-thickness-normal edge-pattern-solid flowchart-link LS-AGENT LE-T3" style="fill:none;" marker-end="url(#mermaid-1773902272557_flowchart-pointEnd)"></path><path d="M1272.209,76L1254.109,80.167C1236.009,84.333,1199.809,92.667,1181.709,100.117C1163.609,107.567,1163.609,114.133,1163.609,117.417L1163.609,120.7" id="L-AGENT-T4-0" class=" edge-thickness-normal edge-pattern-solid flowchart-link LS-AGENT LE-T4" style="fill:none;" marker-end="url(#mermaid-1773902272557_flowchart-pointEnd)"></path><path d="M1364.319,76L1361.27,80.167C1358.22,84.333,1352.122,92.667,1349.073,100.117C1346.023,107.567,1346.023,114.133,1346.023,117.417L1346.023,120.7" id="L-AGENT-T5-0" class=" edge-thickness-normal edge-pattern-solid flowchart-link LS-AGENT LE-T5" style="fill:none;" marker-end="url(#mermaid-1773902272557_flowchart-pointEnd)"></path><path d="M1469.226,76L1483.319,80.167C1497.411,84.333,1525.596,92.667,1539.689,100.117C1553.781,107.567,1553.781,114.133,1553.781,117.417L1553.781,120.7" id="L-AGENT-T6-0" class=" edge-thickness-normal edge-pattern-solid flowchart-link LS-AGENT LE-T6" style="fill:none;" marker-end="url(#mermaid-1773902272557_flowchart-pointEnd)"></path><path d="M1497.434,65.661L1541.896,71.551C1586.359,77.441,1675.285,89.22,1719.748,98.394C1764.211,107.567,1764.211,114.133,1764.211,117.417L1764.211,120.7" id="L-AGENT-T7-0" class=" edge-thickness-normal edge-pattern-solid flowchart-link LS-AGENT LE-T7" style="fill:none;" marker-end="url(#mermaid-1773902272557_flowchart-pointEnd)"></path><path d="M1497.434,60.556L1574.15,67.297C1650.867,74.038,1804.301,87.519,1881.018,97.543C1957.734,107.567,1957.734,114.133,1957.734,117.417L1957.734,120.7" id="L-AGENT-T8-0" class=" edge-thickness-normal edge-pattern-solid flowchart-link LS-AGENT LE-T8" style="fill:none;" marker-end="url(#mermaid-1773902272557_flowchart-pointEnd)"></path><path d="M1497.434,58.019L1606.475,65.183C1715.516,72.346,1933.598,86.673,2042.639,97.12C2151.68,107.567,2151.68,114.133,2151.68,117.417L2151.68,120.7" id="L-AGENT-T9-0" class=" edge-thickness-normal edge-pattern-solid flowchart-link LS-AGENT LE-T9" style="fill:none;" marker-end="url(#mermaid-1773902272557_flowchart-pointEnd)"></path><path d="M1434.883,290.397L1546.904,297.831C1658.924,305.265,1882.966,320.132,1994.987,331.733C2107.008,343.333,2107.008,351.667,2107.008,398.033C2107.008,444.4,2107.008,528.8,2107.008,571L2107.008,613.2" id="L-SG-NORM-0" class=" edge-thickness-normal edge-pattern-solid flowchart-link LS-SG LE-NORM" style="fill:none;" marker-end="url(#mermaid-1773902272557_flowchart-pointEnd)"></path><path d="M2107.008,669.5L2107.008,712.583C2107.008,755.667,2107.008,841.833,2107.008,889.083C2107.008,936.333,2107.008,944.667,2107.008,953C2107.008,961.333,2107.008,969.667,2107.008,977.117C2107.008,984.567,2107.008,991.133,2107.008,994.417L2107.008,997.7" id="L-NORM-CACHE-0" class=" edge-thickness-normal edge-pattern-solid flowchart-link LS-NORM LE-CACHE" style="fill:none;" marker-end="url(#mermaid-1773902272557_flowchart-pointEnd)"></path><path d="M2107.008,1054L2107.008,1058.167C2107.008,1062.333,2107.008,1070.667,2107.008,1079C2107.008,1087.333,2107.008,1095.667,2107.008,1103.117C2107.008,1110.567,2107.008,1117.133,2107.008,1120.417L2107.008,1123.7" id="L-CACHE-GAPS-0" class=" edge-thickness-normal edge-pattern-solid flowchart-link LS-CACHE LE-GAPS" style="fill:none;" marker-end="url(#mermaid-1773902272557_flowchart-pointEnd)"></path><path d="M596.375,159L596.375,163.167C596.375,167.333,596.375,175.667,596.375,184C596.375,192.333,596.375,200.667,596.375,209C596.375,217.333,596.375,225.667,705.625,237.193C814.875,248.719,1033.376,263.439,1142.626,270.798L1251.876,278.158" id="L-T1-SG-0" class=" edge-thickness-normal edge-pattern-solid flowchart-link LS-T1 LE-SG" style="fill:none;" marker-end="url(#mermaid-1773902272557_flowchart-pointEnd)"></path><path d="M782.781,159L782.781,163.167C782.781,167.333,782.781,175.667,782.781,184C782.781,192.333,782.781,200.667,782.781,209C782.781,217.333,782.781,225.667,860.965,236.843C939.149,248.02,1095.517,262.04,1173.701,269.05L1251.885,276.06" id="L-T2-SG-0" class=" edge-thickness-normal edge-pattern-solid flowchart-link LS-T2 LE-SG" style="fill:none;" marker-end="url(#mermaid-1773902272557_flowchart-pointEnd)"></path><path d="M983.422,159L983.422,163.167C983.422,167.333,983.422,175.667,983.422,184C983.422,192.333,983.422,200.667,983.422,209C983.422,217.333,983.422,225.667,1028.171,236.066C1072.919,246.464,1162.417,258.929,1207.166,265.161L1251.915,271.393" id="L-T3-SG-0" class=" edge-thickness-normal edge-pattern-solid flowchart-link LS-T3 LE-SG" style="fill:none;" marker-end="url(#mermaid-1773902272557_flowchart-pointEnd)"></path><path d="M1163.609,159L1163.609,163.167C1163.609,167.333,1163.609,175.667,1163.609,184C1163.609,192.333,1163.609,200.667,1163.609,209C1163.609,217.333,1163.609,225.667,1178.351,233.914C1193.092,242.162,1222.574,250.324,1237.315,254.405L1252.056,258.486" id="L-T4-SG-0" class=" edge-thickness-normal edge-pattern-solid flowchart-link LS-T4 LE-SG" style="fill:none;" marker-end="url(#mermaid-1773902272557_flowchart-pointEnd)"></path><path d="M1346.023,159L1346.023,163.167C1346.023,167.333,1346.023,175.667,1346.023,184C1346.023,192.333,1346.023,200.667,1346.023,209C1346.023,217.333,1346.023,225.667,1346.023,233.117C1346.023,240.567,1346.023,247.133,1346.023,250.417L1346.023,253.7" id="L-T5-SG-0" class=" edge-thickness-normal edge-pattern-solid flowchart-link LS-T5 LE-SG" style="fill:none;" marker-end="url(#mermaid-1773902272557_flowchart-pointEnd)"></path><path d="M1553.781,159L1553.781,163.167C1553.781,167.333,1553.781,175.667,1553.781,184C1553.781,192.333,1553.781,200.667,1553.781,209C1553.781,217.333,1553.781,225.667,1534.823,234.441C1515.865,243.216,1477.949,252.433,1458.991,257.041L1440.033,261.649" id="L-T6-SG-0" class=" edge-thickness-normal edge-pattern-solid flowchart-link LS-T6 LE-SG" style="fill:none;" marker-end="url(#mermaid-1773902272557_flowchart-pointEnd)"></path><path d="M1764.211,159L1764.211,163.167C1764.211,167.333,1764.211,175.667,1764.211,184C1764.211,192.333,1764.211,200.667,1764.211,209C1764.211,217.333,1764.211,225.667,1710.2,236.356C1656.189,247.045,1548.167,260.089,1494.156,266.612L1440.145,273.134" id="L-T7-SG-0" class=" edge-thickness-normal edge-pattern-solid flowchart-link LS-T7 LE-SG" style="fill:none;" marker-end="url(#mermaid-1773902272557_flowchart-pointEnd)"></path><path d="M1957.734,159L1957.734,163.167C1957.734,167.333,1957.734,175.667,1957.734,184C1957.734,192.333,1957.734,200.667,1957.734,209C1957.734,217.333,1957.734,225.667,1871.473,236.955C1785.211,248.243,1612.688,262.485,1526.426,269.607L1440.165,276.728" id="L-T8-SG-0" class=" edge-thickness-normal edge-pattern-solid flowchart-link LS-T8 LE-SG" style="fill:none;" marker-end="url(#mermaid-1773902272557_flowchart-pointEnd)"></path><path d="M2151.68,159L2151.68,163.167C2151.68,167.333,2151.68,175.667,2151.68,184C2151.68,192.333,2151.68,200.667,2151.68,209C2151.68,217.333,2151.68,225.667,2033.095,237.266C1914.511,248.866,1677.342,263.732,1558.757,271.165L1440.172,278.599" id="L-T9-SG-0" class=" edge-thickness-normal edge-pattern-solid flowchart-link LS-T9 LE-SG" style="fill:none;" marker-end="url(#mermaid-1773902272557_flowchart-pointEnd)"></path><path d="M1257.164,290.666L1150.688,298.055C1044.211,305.444,831.258,320.222,724.781,331.778C618.305,343.333,618.305,351.667,556.545,392.435C494.785,433.203,371.266,506.405,309.507,543.006L247.747,579.608" id="L-SG-CS-0" class=" edge-thickness-normal edge-pattern-solid flowchart-link LS-SG LE-CS" style="fill:none;" marker-end="url(#mermaid-1773902272557_flowchart-pointEnd)"></path><path d="M1361.245,310L1363.732,314.167C1366.219,318.333,1371.194,326.667,1373.681,335C1376.168,343.333,1376.168,351.667,1231.217,397.887C1086.267,444.108,796.366,528.215,651.416,570.269L506.465,612.323" id="L-SG-MT-0" class=" edge-thickness-normal edge-pattern-solid flowchart-link LS-SG LE-MT" style="fill:none;" marker-end="url(#mermaid-1773902272557_flowchart-pointEnd)"></path><path d="M139.094,903L139.094,907.167C139.094,911.333,139.094,919.667,139.094,928C139.094,936.333,139.094,944.667,139.094,953C139.094,961.333,139.094,969.667,139.094,977.117C139.094,984.567,139.094,991.133,139.094,994.417L139.094,997.7" id="L-CS-FHIR_CS-0" class=" edge-thickness-normal edge-pattern-solid flowchart-link LS-CS LE-FHIR_CS" style="fill:none;" marker-end="url(#mermaid-1773902272557_flowchart-pointEnd)"></path><path d="M397.281,903L397.281,907.167C397.281,911.333,397.281,919.667,397.281,928C397.281,936.333,397.281,944.667,397.281,953C397.281,961.333,397.281,969.667,397.281,977.117C397.281,984.567,397.281,991.133,397.281,994.417L397.281,997.7" id="L-MT-FHIR_MT-0" class=" edge-thickness-normal edge-pattern-solid flowchart-link LS-MT LE-FHIR_MT" style="fill:none;" marker-end="url(#mermaid-1773902272557_flowchart-pointEnd)"></path></g><g class="edgeLabels"><g class="edgeLabel"><g class="label" transform="translate(0, 0)"><foreignObject width="0" height="20"><div xmlns="http://www.w3.org/1999/xhtml" style="display: inline-block; white-space: nowrap;"><span class="edgeLabel"></span></div></foreignObject></g></g><g class="edgeLabel"><g class="label" transform="translate(0, 0)"><foreignObject width="0" height="20"><div xmlns="http://www.w3.org/1999/xhtml" style="display: inline-block; white-space: nowrap;"><span class="edgeLabel"></span></div></foreignObject></g></g><g class="edgeLabel"><g class="label" transform="translate(0, 0)"><foreignObject width="0" height="20"><div xmlns="http://www.w3.org/1999/xhtml" style="display: inline-block; white-space: nowrap;"><span class="edgeLabel"></span></div></foreignObject></g></g><g class="edgeLabel"><g class="label" transform="translate(0, 0)"><foreignObject width="0" height="20"><div xmlns="http://www.w3.org/1999/xhtml" style="display: inline-block; white-space: nowrap;"><span class="edgeLabel"></span></div></foreignObject></g></g><g class="edgeLabel"><g class="label" transform="translate(0, 0)"><foreignObject width="0" height="20"><div xmlns="http://www.w3.org/1999/xhtml" style="display: inline-block; white-space: nowrap;"><span class="edgeLabel"></span></div></foreignObject></g></g><g class="edgeLabel"><g class="label" transform="translate(0, 0)"><foreignObject width="0" height="20"><div xmlns="http://www.w3.org/1999/xhtml" style="display: inline-block; white-space: nowrap;"><span class="edgeLabel"></span></div></foreignObject></g></g><g class="edgeLabel"><g class="label" transform="translate(0, 0)"><foreignObject width="0" height="20"><div xmlns="http://www.w3.org/1999/xhtml" style="display: inline-block; white-space: nowrap;"><span class="edgeLabel"></span></div></foreignObject></g></g><g class="edgeLabel"><g class="label" transform="translate(0, 0)"><foreignObject width="0" height="20"><div xmlns="http://www.w3.org/1999/xhtml" style="display: inline-block; white-space: nowrap;"><span class="edgeLabel"></span></div></foreignObject></g></g><g class="edgeLabel"><g class="label" transform="translate(0, 0)"><foreignObject width="0" height="20"><div xmlns="http://www.w3.org/1999/xhtml" style="display: inline-block; white-space: nowrap;"><span class="edgeLabel"></span></div></foreignObject></g></g><g class="edgeLabel"><g class="label" transform="translate(0, 0)"><foreignObject width="0" height="20"><div xmlns="http://www.w3.org/1999/xhtml" style="display: inline-block; white-space: nowrap;"><span class="edgeLabel"></span></div></foreignObject></g></g><g class="edgeLabel"><g class="label" transform="translate(0, 0)"><foreignObject width="0" height="20"><div xmlns="http://www.w3.org/1999/xhtml" style="display: inline-block; white-space: nowrap;"><span class="edgeLabel"></span></div></foreignObject></g></g><g class="edgeLabel"><g class="label" transform="translate(0, 0)"><foreignObject width="0" height="20"><div xmlns="http://www.w3.org/1999/xhtml" style="display: inline-block; white-space: nowrap;"><span class="edgeLabel"></span></div></foreignObject></g></g><g class="edgeLabel"><g class="label" transform="translate(0, 0)"><foreignObject width="0" height="20"><div xmlns="http://www.w3.org/1999/xhtml" style="display: inline-block; white-space: nowrap;"><span class="edgeLabel"></span></div></foreignObject></g></g><g class="edgeLabel"><g class="label" transform="translate(0, 0)"><foreignObject width="0" height="20"><div xmlns="http://www.w3.org/1999/xhtml" style="display: inline-block; white-space: nowrap;"><span class="edgeLabel"></span></div></foreignObject></g></g><g class="edgeLabel"><g class="label" transform="translate(0, 0)"><foreignObject width="0" height="20"><div xmlns="http://www.w3.org/1999/xhtml" style="display: inline-block; white-space: nowrap;"><span class="edgeLabel"></span></div></foreignObject></g></g><g class="edgeLabel"><g class="label" transform="translate(0, 0)"><foreignObject width="0" height="20"><div xmlns="http://www.w3.org/1999/xhtml" style="display: inline-block; white-space: nowrap;"><span class="edgeLabel"></span></div></foreignObject></g></g><g class="edgeLabel"><g class="label" transform="translate(0, 0)"><foreignObject width="0" height="20"><div xmlns="http://www.w3.org/1999/xhtml" style="display: inline-block; white-space: nowrap;"><span class="edgeLabel"></span></div></foreignObject></g></g><g class="edgeLabel"><g class="label" transform="translate(0, 0)"><foreignObject width="0" height="20"><div xmlns="http://www.w3.org/1999/xhtml" style="display: inline-block; white-space: nowrap;"><span class="edgeLabel"></span></div></foreignObject></g></g><g class="edgeLabel"><g class="label" transform="translate(0, 0)"><foreignObject width="0" height="20"><div xmlns="http://www.w3.org/1999/xhtml" style="display: inline-block; white-space: nowrap;"><span class="edgeLabel"></span></div></foreignObject></g></g><g class="edgeLabel"><g class="label" transform="translate(0, 0)"><foreignObject width="0" height="20"><div xmlns="http://www.w3.org/1999/xhtml" style="display: inline-block; white-space: nowrap;"><span class="edgeLabel"></span></div></foreignObject></g></g><g class="edgeLabel"><g class="label" transform="translate(0, 0)"><foreignObject width="0" height="20"><div xmlns="http://www.w3.org/1999/xhtml" style="display: inline-block; white-space: nowrap;"><span class="edgeLabel"></span></div></foreignObject></g></g><g class="edgeLabel"><g class="label" transform="translate(0, 0)"><foreignObject width="0" height="20"><div xmlns="http://www.w3.org/1999/xhtml" style="display: inline-block; white-space: nowrap;"><span class="edgeLabel"></span></div></foreignObject></g></g><g class="edgeLabel"><g class="label" transform="translate(0, 0)"><foreignObject width="0" height="20"><div xmlns="http://www.w3.org/1999/xhtml" style="display: inline-block; white-space: nowrap;"><span class="edgeLabel"></span></div></foreignObject></g></g><g class="edgeLabel"><g class="label" transform="translate(0, 0)"><foreignObject width="0" height="20"><div xmlns="http://www.w3.org/1999/xhtml" style="display: inline-block; white-space: nowrap;"><span class="edgeLabel"></span></div></foreignObject></g></g><g class="edgeLabel"><g class="label" transform="translate(0, 0)"><foreignObject width="0" height="20"><div xmlns="http://www.w3.org/1999/xhtml" style="display: inline-block; white-space: nowrap;"><span class="edgeLabel"></span></div></foreignObject></g></g></g><g class="nodes"><g class="node default default flowchart-label" id="flowchart-FHIR_CS-50" data-node="true" data-id="FHIR_CS" transform="translate(139.09375, 1028.5)"><rect class="basic label-container" style="" rx="0" ry="0" x="-91.5234375" y="-25.5" width="183.046875" height="51"></rect><g class="label" style="" transform="translate(-84.0234375, -18)"><rect></rect><foreignObject width="168.046875" height="56"><div xmlns="http://www.w3.org/1999/xhtml" style="display: inline-block; white-space: nowrap;"><span class="nodeLabel">CareStack FHIR Server<br>(SMART on FHIR R4)</span></div></foreignObject></g></g><g class="node default default flowchart-label" id="flowchart-FHIR_MT-51" data-node="true" data-id="FHIR_MT" transform="translate(397.28125, 1028.5)"><rect class="basic label-container" style="" rx="0" ry="0" x="-85" y="-25.5" width="170" height="51"></rect><g class="label" style="" transform="translate(-77.5, -18)"><rect></rect><foreignObject width="155" height="56"><div xmlns="http://www.w3.org/1999/xhtml" style="display: inline-block; white-space: nowrap;"><span class="nodeLabel">Meditab FHIR Server<br>(SMART on FHIR R4)</span></div></foreignObject></g></g><g class="root" transform="translate(27.5, 377)"><g class="clusters"><g class="cluster default flowchart-label" id="CS"><rect style="fill:#92400e;stroke:#f59e0b;" rx="0" ry="0" x="8" y="8" width="208.1875" height="518"></rect><g class="cluster-label" transform="translate(31.171875, 8)"><foreignObject width="161.84375" height="38"><div style="color: rgb(254, 243, 199); display: inline-block; white-space: nowrap;" xmlns="http://www.w3.org/1999/xhtml"><span style="color:#fef3c7;" class="nodeLabel">CareStack System API</span></div></foreignObject></g></g></g><g class="edgePaths"></g><g class="edgeLabels"></g><g class="nodes"><g class="node default default flowchart-label" id="flowchart-CS_PAT-38" data-node="true" data-id="CS_PAT" transform="translate(112.09375, 59.5)"><rect class="basic label-container" style="" rx="0" ry="0" x="-32.40625" y="-16.5" width="64.8125" height="33"></rect><g class="label" style="" transform="translate(-24.90625, -9)"><rect></rect><foreignObject width="49.8125" height="38"><div xmlns="http://www.w3.org/1999/xhtml" style="display: inline-block; white-space: nowrap;"><span class="nodeLabel">Patient</span></div></foreignObject></g></g><g class="node default default flowchart-label" id="flowchart-CS_CON-39" data-node="true" data-id="CS_CON" transform="translate(112.09375, 142.5)"><rect class="basic label-container" style="" rx="0" ry="0" x="-41.3046875" y="-16.5" width="82.609375" height="33"></rect><g class="label" style="" transform="translate(-33.8046875, -9)"><rect></rect><foreignObject width="67.609375" height="38"><div xmlns="http://www.w3.org/1999/xhtml" style="display: inline-block; white-space: nowrap;"><span class="nodeLabel">Condition</span></div></foreignObject></g></g><g class="node default default flowchart-label" id="flowchart-CS_OBS-40" data-node="true" data-id="CS_OBS" transform="translate(112.09375, 225.5)"><rect class="basic label-container" style="" rx="0" ry="0" x="-50.6328125" y="-16.5" width="101.265625" height="33"></rect><g class="label" style="" transform="translate(-43.1328125, -9)"><rect></rect><foreignObject width="86.265625" height="38"><div xmlns="http://www.w3.org/1999/xhtml" style="display: inline-block; white-space: nowrap;"><span class="nodeLabel">Observation</span></div></foreignObject></g></g><g class="node default default flowchart-label" id="flowchart-CS_MED-41" data-node="true" data-id="CS_MED" transform="translate(112.09375, 308.5)"><rect class="basic label-container" style="" rx="0" ry="0" x="-75.984375" y="-16.5" width="151.96875" height="33"></rect><g class="label" style="" transform="translate(-68.484375, -9)"><rect></rect><foreignObject width="136.96875" height="38"><div xmlns="http://www.w3.org/1999/xhtml" style="display: inline-block; white-space: nowrap;"><span class="nodeLabel">MedicationRequest</span></div></foreignObject></g></g><g class="node default default flowchart-label" id="flowchart-CS_ALG-42" data-node="true" data-id="CS_ALG" transform="translate(112.09375, 391.5)"><rect class="basic label-container" style="" rx="0" ry="0" x="-71.5390625" y="-16.5" width="143.078125" height="33"></rect><g class="label" style="" transform="translate(-64.0390625, -9)"><rect></rect><foreignObject width="128.078125" height="38"><div xmlns="http://www.w3.org/1999/xhtml" style="display: inline-block; white-space: nowrap;"><span class="nodeLabel">AllergyIntolerance</span></div></foreignObject></g></g><g class="node default default flowchart-label" id="flowchart-CS_CAP-43" data-node="true" data-id="CS_CAP" transform="translate(112.09375, 474.5)"><rect class="basic label-container" style="" rx="0" ry="0" x="-79.09375" y="-16.5" width="158.1875" height="33"></rect><g class="label" style="" transform="translate(-71.59375, -9)"><rect></rect><foreignObject width="143.1875" height="38"><div xmlns="http://www.w3.org/1999/xhtml" style="display: inline-block; white-space: nowrap;"><span class="nodeLabel">CapabilityStatement</span></div></foreignObject></g></g></g></g><g class="root" transform="translate(285.6875, 377)"><g class="clusters"><g class="cluster default flowchart-label" id="MT"><rect style="fill:#92400e;stroke:#f59e0b;" rx="0" ry="0" x="8" y="8" width="208.1875" height="518"></rect><g class="cluster-label" transform="translate(40.0625, 8)"><foreignObject width="144.0625" height="38"><div style="color: rgb(254, 243, 199); display: inline-block; white-space: nowrap;" xmlns="http://www.w3.org/1999/xhtml"><span style="color:#fef3c7;" class="nodeLabel">Meditab System API</span></div></foreignObject></g></g></g><g class="edgePaths"></g><g class="edgeLabels"></g><g class="nodes"><g class="node default default flowchart-label" id="flowchart-MT_PAT-44" data-node="true" data-id="MT_PAT" transform="translate(112.09375, 59.5)"><rect class="basic label-container" style="" rx="0" ry="0" x="-32.40625" y="-16.5" width="64.8125" height="33"></rect><g class="label" style="" transform="translate(-24.90625, -9)"><rect></rect><foreignObject width="49.8125" height="38"><div xmlns="http://www.w3.org/1999/xhtml" style="display: inline-block; white-space: nowrap;"><span class="nodeLabel">Patient</span></div></foreignObject></g></g><g class="node default default flowchart-label" id="flowchart-MT_CON-45" data-node="true" data-id="MT_CON" transform="translate(112.09375, 142.5)"><rect class="basic label-container" style="" rx="0" ry="0" x="-41.3046875" y="-16.5" width="82.609375" height="33"></rect><g class="label" style="" transform="translate(-33.8046875, -9)"><rect></rect><foreignObject width="67.609375" height="38"><div xmlns="http://www.w3.org/1999/xhtml" style="display: inline-block; white-space: nowrap;"><span class="nodeLabel">Condition</span></div></foreignObject></g></g><g class="node default default flowchart-label" id="flowchart-MT_OBS-46" data-node="true" data-id="MT_OBS" transform="translate(112.09375, 225.5)"><rect class="basic label-container" style="" rx="0" ry="0" x="-50.6328125" y="-16.5" width="101.265625" height="33"></rect><g class="label" style="" transform="translate(-43.1328125, -9)"><rect></rect><foreignObject width="86.265625" height="38"><div xmlns="http://www.w3.org/1999/xhtml" style="display: inline-block; white-space: nowrap;"><span class="nodeLabel">Observation</span></div></foreignObject></g></g><g class="node default default flowchart-label" id="flowchart-MT_MED-47" data-node="true" data-id="MT_MED" transform="translate(112.09375, 308.5)"><rect class="basic label-container" style="" rx="0" ry="0" x="-75.984375" y="-16.5" width="151.96875" height="33"></rect><g class="label" style="" transform="translate(-68.484375, -9)"><rect></rect><foreignObject width="136.96875" height="38"><div xmlns="http://www.w3.org/1999/xhtml" style="display: inline-block; white-space: nowrap;"><span class="nodeLabel">MedicationRequest</span></div></foreignObject></g></g><g class="node default default flowchart-label" id="flowchart-MT_ALG-48" data-node="true" data-id="MT_ALG" transform="translate(112.09375, 391.5)"><rect class="basic label-container" style="" rx="0" ry="0" x="-71.5390625" y="-16.5" width="143.078125" height="33"></rect><g class="label" style="" transform="translate(-64.0390625, -9)"><rect></rect><foreignObject width="128.078125" height="38"><div xmlns="http://www.w3.org/1999/xhtml" style="display: inline-block; white-space: nowrap;"><span class="nodeLabel">AllergyIntolerance</span></div></foreignObject></g></g><g class="node default default flowchart-label" id="flowchart-MT_CAP-49" data-node="true" data-id="MT_CAP" transform="translate(112.09375, 474.5)"><rect class="basic label-container" style="" rx="0" ry="0" x="-79.09375" y="-16.5" width="158.1875" height="33"></rect><g class="label" style="" transform="translate(-71.59375, -9)"><rect></rect><foreignObject width="143.1875" height="38"><div xmlns="http://www.w3.org/1999/xhtml" style="display: inline-block; white-space: nowrap;"><span class="nodeLabel">CapabilityStatement</span></div></foreignObject></g></g></g></g><g class="node default default flowchart-label" id="flowchart-SG-28" data-node="true" data-id="SG" transform="translate(1346.0234375, 284.5)"><rect class="basic label-container" style="" rx="0" ry="0" x="-88.859375" y="-25.5" width="177.71875" height="51"></rect><g class="label" style="" transform="translate(-81.359375, -18)"><rect></rect><foreignObject width="162.71875" height="56"><div xmlns="http://www.w3.org/1999/xhtml" style="display: inline-block; white-space: nowrap;"><span class="nodeLabel">Scatter-Gather<br>(Parallel EHR Queries)</span></div></foreignObject></g></g><g class="node default default flowchart-label" id="flowchart-NORM-29" data-node="true" data-id="NORM" transform="translate(2107.0078125, 644)"><rect class="basic label-container" style="" rx="0" ry="0" x="-84.3984375" y="-25.5" width="168.796875" height="51"></rect><g class="label" style="" transform="translate(-76.8984375, -18)"><rect></rect><foreignObject width="153.796875" height="56"><div xmlns="http://www.w3.org/1999/xhtml" style="display: inline-block; white-space: nowrap;"><span class="nodeLabel">Data Normalization<br>(SNOMED to ICD-10)</span></div></foreignObject></g></g><g class="node default default flowchart-label" id="flowchart-CACHE-30" data-node="true" data-id="CACHE" transform="translate(2107.0078125, 1028.5)"><rect class="basic label-container" style="" rx="0" ry="0" x="-74.1953125" y="-25.5" width="148.390625" height="51"></rect><g class="label" style="" transform="translate(-66.6953125, -18)"><rect></rect><foreignObject width="133.390625" height="56"><div xmlns="http://www.w3.org/1999/xhtml" style="display: inline-block; white-space: nowrap;"><span class="nodeLabel">Patient ID Registry<br>(Prefix Routing)</span></div></foreignObject></g></g><g class="node default default flowchart-label" id="flowchart-GAPS-31" data-node="true" data-id="GAPS" transform="translate(2107.0078125, 1154.5)"><rect class="basic label-container" style="" rx="0" ry="0" x="-78.203125" y="-25.5" width="156.40625" height="51"></rect><g class="label" style="" transform="translate(-70.703125, -18)"><rect></rect><foreignObject width="141.40625" height="56"><div xmlns="http://www.w3.org/1999/xhtml" style="display: inline-block; white-space: nowrap;"><span class="nodeLabel">Care Gap Detection<br>(Clinical Logic)</span></div></foreignObject></g></g><g class="node default default flowchart-label" id="flowchart-AGENT-0" data-node="true" data-id="AGENT" transform="translate(1382.98046875, 50.5)"><rect class="basic label-container" style="fill:#0070c9;stroke:#00A1DF;" rx="0" ry="0" x="-114.453125" y="-25.5" width="228.90625" height="51"></rect><g class="label" style="color:#ffffff;" transform="translate(-106.953125, -18)"><rect></rect><foreignObject width="213.90625" height="56"><div style="color: rgb(255, 255, 255); display: inline-block; white-space: nowrap;" xmlns="http://www.w3.org/1999/xhtml"><span style="color:#ffffff;" class="nodeLabel">Clinical Intelligence Agent<br>(AI SDK + Claude Sonnet 4.6)</span></div></foreignObject></g></g><g class="node default default flowchart-label" id="flowchart-T1-1" data-node="true" data-id="T1" transform="translate(596.375, 142.5)"><rect class="basic label-container" style="" rx="0" ry="0" x="-55.078125" y="-16.5" width="110.15625" height="33"></rect><g class="label" style="" transform="translate(-47.578125, -9)"><rect></rect><foreignObject width="95.15625" height="38"><div xmlns="http://www.w3.org/1999/xhtml" style="display: inline-block; white-space: nowrap;"><span class="nodeLabel">listAllPatients</span></div></foreignObject></g></g><g class="node default default flowchart-label" id="flowchart-T2-2" data-node="true" data-id="T2" transform="translate(782.78125, 142.5)"><rect class="basic label-container" style="" rx="0" ry="0" x="-81.328125" y="-16.5" width="162.65625" height="33"></rect><g class="label" style="" transform="translate(-73.828125, -9)"><rect></rect><foreignObject width="147.65625" height="38"><div xmlns="http://www.w3.org/1999/xhtml" style="display: inline-block; white-space: nowrap;"><span class="nodeLabel">getPatientConditions</span></div></foreignObject></g></g><g class="node default default flowchart-label" id="flowchart-T3-3" data-node="true" data-id="T3" transform="translate(983.421875, 142.5)"><rect class="basic label-container" style="" rx="0" ry="0" x="-69.3125" y="-16.5" width="138.625" height="33"></rect><g class="label" style="" transform="translate(-61.8125, -9)"><rect></rect><foreignObject width="123.625" height="38"><div xmlns="http://www.w3.org/1999/xhtml" style="display: inline-block; white-space: nowrap;"><span class="nodeLabel">searchConditions</span></div></foreignObject></g></g><g class="node default default flowchart-label" id="flowchart-T4-4" data-node="true" data-id="T4" transform="translate(1163.609375, 142.5)"><rect class="basic label-container" style="" rx="0" ry="0" x="-60.875" y="-16.5" width="121.75" height="33"></rect><g class="label" style="" transform="translate(-53.375, -9)"><rect></rect><foreignObject width="106.75" height="38"><div xmlns="http://www.w3.org/1999/xhtml" style="display: inline-block; white-space: nowrap;"><span class="nodeLabel">getPatientLabs</span></div></foreignObject></g></g><g class="node default default flowchart-label" id="flowchart-T5-5" data-node="true" data-id="T5" transform="translate(1346.0234375, 142.5)"><rect class="basic label-container" style="" rx="0" ry="0" x="-71.5390625" y="-16.5" width="143.078125" height="33"></rect><g class="label" style="" transform="translate(-64.0390625, -9)"><rect></rect><foreignObject width="128.078125" height="38"><div xmlns="http://www.w3.org/1999/xhtml" style="display: inline-block; white-space: nowrap;"><span class="nodeLabel">searchLabResults</span></div></foreignObject></g></g><g class="node default default flowchart-label" id="flowchart-T6-6" data-node="true" data-id="T6" transform="translate(1553.78125, 142.5)"><rect class="basic label-container" style="" rx="0" ry="0" x="-86.21875" y="-16.5" width="172.4375" height="33"></rect><g class="label" style="" transform="translate(-78.71875, -9)"><rect></rect><foreignObject width="157.4375" height="38"><div xmlns="http://www.w3.org/1999/xhtml" style="display: inline-block; white-space: nowrap;"><span class="nodeLabel">getPatientMedications</span></div></foreignObject></g></g><g class="node default default flowchart-label" id="flowchart-T7-7" data-node="true" data-id="T7" transform="translate(1764.2109375, 142.5)"><rect class="basic label-container" style="" rx="0" ry="0" x="-74.2109375" y="-16.5" width="148.421875" height="33"></rect><g class="label" style="" transform="translate(-66.7109375, -9)"><rect></rect><foreignObject width="133.421875" height="38"><div xmlns="http://www.w3.org/1999/xhtml" style="display: inline-block; white-space: nowrap;"><span class="nodeLabel">getPatientAllergies</span></div></foreignObject></g></g><g class="node default default flowchart-label" id="flowchart-T8-8" data-node="true" data-id="T8" transform="translate(1957.734375, 142.5)"><rect class="basic label-container" style="" rx="0" ry="0" x="-69.3125" y="-16.5" width="138.625" height="33"></rect><g class="label" style="" transform="translate(-61.8125, -9)"><rect></rect><foreignObject width="123.625" height="38"><div xmlns="http://www.w3.org/1999/xhtml" style="display: inline-block; white-space: nowrap;"><span class="nodeLabel">identifyCareGaps</span></div></foreignObject></g></g><g class="node default default flowchart-label" id="flowchart-T9-9" data-node="true" data-id="T9" transform="translate(2151.6796875, 142.5)"><rect class="basic label-container" style="" rx="0" ry="0" x="-74.6328125" y="-16.5" width="149.265625" height="33"></rect><g class="label" style="" transform="translate(-67.1328125, -9)"><rect></rect><foreignObject width="134.265625" height="38"><div xmlns="http://www.w3.org/1999/xhtml" style="display: inline-block; white-space: nowrap;"><span class="nodeLabel">discoverFhirServer</span></div></foreignObject></g></g></g></g></g></svg>